Fungal-Grow 300 Thickness 1000.ufo
<glyph name="b" format="1">
  <advance width="1300"/>
  <unicode hex="0062"/>
  <outline>
    <contour>
      <point x="997" y="559" type="curve"/>
      <point x="997" y="559" type="line"/>
      <point x="997" y="829.667"/>
      <point x="878.667" y="993"/>
      <point x="684" y="993" type="curve" smooth="yes"/>
      <point x="489.333" y="993"/>
      <point x="371" y="829.667"/>
      <point x="371" y="559" type="curve" smooth="yes"/>
      <point x="371" y="288.333"/>
      <point x="489.333" y="125"/>
      <point x="684" y="125" type="curve" smooth="yes"/>
      <point x="878.667" y="125"/>
      <point x="997" y="288.333"/>
    </contour>
    <contour>
      <point x="371" y="950" type="line"/>
      <point x="448.333" y="1083.333"/>
      <point x="565" y="1147"/>
      <point x="729" y="1147" type="curve" smooth="yes"/>
      <point x="1001" y="1147"/>
      <point x="1188" y="911"/>
      <point x="1188" y="559" type="curve" smooth="yes"/>
      <point x="1188" y="207"/>
      <point x="1001" y="-29"/>
      <point x="729" y="-29" type="curve" smooth="yes"/>
      <point x="565" y="-29"/>
      <point x="448.333" y="34.667"/>
      <point x="371" y="168" type="curve"/>
      <point x="371" y="0" type="line"/>
      <point x="186" y="0" type="line"/>
      <point x="186" y="1556" type="line"/>
      <point x="371" y="1556" type="line"/>
      <point x="371" y="950" type="line"/>
    </contour>
    <component base="blob2" xScale="-1" xOffset="1081" yOffset="-90"/>
    <component base="blob3" xScale="-1" xOffset="1342" yOffset="-362"/>
    <component base="blob4" xScale="-0.8168" yScale="0.8168" xOffset="1700" yOffset="-353"/>
    <component base="blob5" xScale="-1" xOffset="2030" yOffset="-610"/>
    <component base="blob6" xScale="-0.8993" yScale="0.8993" xOffset="2286" yOffset="-493"/>
    <component base="blob7" xScale="-1.0017" yScale="1.0017" xOffset="2518" yOffset="-157"/>
    <component base="blob8" xScale="-0.7047" yScale="0.7047" xOffset="2850" yOffset="-7"/>
    <component base="blob9" xScale="-0.4869" yScale="0.4869" xOffset="3100" yOffset="71"/>
    <component base="blob4" xScale="-0.6152" yScale="-0.6152" xOffset="420" yOffset="454"/>
    <component base="blob5" xScale="-0.808" yScale="-0.808" xOffset="455" yOffset="747"/>
    <component base="blob6" xScale="-0.8918" yScale="-0.8918" xOffset="769" yOffset="920"/>
    <component base="blob7" xScale="-0.5898" yScale="-0.5898" xOffset="986" yOffset="727"/>
    <component base="blob8" xScale="-0.6109" yScale="-0.6109" xOffset="1171" yOffset="607"/>
    <component base="blob9" xScale="-0.4869" yScale="-0.4869" xOffset="1402" yOffset="504"/>
    <contour>
      <point x="278" y="1520" type="move" name="above"/>
    </contour>
    <contour>
      <point x="695" y="0" type="move" name="below"/>
    </contour>
    <contour>
      <point x="0" y="1520" type="move" name="half"/>
    </contour>
  </outline>
</glyph>
<glyph name="k" format="1">
  <advance width="1186"/>
  <unicode hex="006B"/>
  <outline>
    <contour>
      <point x="186" y="1556" type="line"/>
      <point x="371" y="1556" type="line"/>
      <point x="371" y="637" type="line"/>
      <point x="920" y="1120" type="line"/>
      <point x="1155" y="1120" type="line"/>
      <point x="561" y="596" type="line"/>
      <point x="1180" y="0" type="line"/>
      <point x="940" y="0" type="line"/>
      <point x="371" y="547" type="line"/>
      <point x="371" y="0" type="line"/>
      <point x="186" y="0" type="line"/>
      <point x="186" y="1556" type="line"/>
    </contour>
    <component base="blob1" xScale="0" xyScale="1.2886" yScale="0" yxScale="1.2886" xOffset="819" yOffset="464"/>
    <component base="blob2" xScale="0" xyScale="1" yScale="0" yxScale="1" xOffset="1308" yOffset="262"/>
    <component base="blob3" xScale="0" xyScale="1" yScale="0" yxScale="1" xOffset="1722" yOffset="27"/>
    <component base="blob4" xScale="0" xyScale="0.8783" yScale="0" yxScale="0.8783" xOffset="2089" yOffset="-169"/>
    <component base="blob5" xScale="0" xyScale="1" yScale="0" yxScale="1" xOffset="2500" yOffset="-134"/>
    <component base="blob6" xScale="0" xyScale="1.1539" yScale="0" yxScale="1.1539" xOffset="2966" yOffset="-14"/>
    <component base="blob7" xScale="0" xyScale="0.9753" yScale="0" yxScale="0.9753" xOffset="3345" yOffset="280"/>
    <component base="blob8" xScale="0" xyScale="0.7047" yScale="0" yxScale="0.7047" xOffset="3673" yOffset="511"/>
    <component base="blob9" xScale="0" xyScale="0.4869" yScale="0" yxScale="0.4869" xOffset="3959" yOffset="499"/>
    <component base="blob5" xScale="0.8394" yScale="-0.8394" xOffset="182" yOffset="1192"/>
    <component base="blob4" xScale="0.6152" yScale="-0.6152" xOffset="179" yOffset="877"/>
    <component base="blob5" yScale="-1" xOffset="22" yOffset="566"/>
    <component base="blob6" xScale="0.9593" yScale="-0.9593" xOffset="-130" yOffset="270"/>
    <component base="blob7" xScale="0.9753" yScale="-0.9753" xOffset="73" yOffset="-181"/>
    <component base="blob8" xScale="0.7047" yScale="-0.7047" xOffset="223" yOffset="-547"/>
    <component base="blob9" xScale="0.4869" yScale="-0.4869" xOffset="38" yOffset="-789"/>
    <contour>
      <point x="278" y="1520" type="move" name="above"/>
    </contour>
    <contour>
      <point x="678" y="0" type="move" name="below"/>
    </contour>
    <contour>
      <point x="0" y="1520" type="move" name="half"/>
    </contour>
  </outline>
</glyph>
<glyph name="aogonek" format="1">
  <advance width="1255"/>
  <unicode hex="0105"/>
  <outline>
    <component base="a"/>
    <component base="ogonek" xOffset="447"/>
    <contour>
      <point x="586" y="1147" type="move" name="above"/>
    </contour>
    <contour>
      <point x="977" y="-384" type="move" name="below"/>
    </contour>
    <contour>
      <point x="977" y="-384" type="move" name="cedilla"/>
    </contour>
    <contour>
      <point x="0" y="1520" type="move" name="half"/>
    </contour>
  </outline>
</glyph>
<glyph name="ibreve" format="1">
  <advance width="569"/>
  <unicode hex="012D"/>
  <outline>
    <component base="breve" xOffset="-227"/>
    <component base="dotlessi"/>
    <contour>
      <point x="287" y="0" type="move" name="below"/>
    </contour>
    <contour>
      <point x="287" y="0" type="move" name="cedilla"/>
    </contour>
  </outline>
</glyph>
<glyph name="uni031F" format="1">
  <advance width="0"/>
  <unicode hex="031F"/>
  <outline>
    <contour>
      <point x="-572" y="-331" type="line"/>
      <point x="-732" y="-331" type="line"/>
      <point x="-732" y="-211" type="line"/>
      <point x="-572" y="-211" type="line"/>
      <point x="-572" y="-50" type="line"/>
      <point x="-452" y="-50" type="line"/>
      <point x="-452" y="-211" type="line"/>
      <point x="-292" y="-211" type="line"/>
      <point x="-292" y="-331" type="line"/>
      <point x="-452" y="-331" type="line"/>
      <point x="-452" y="-492" type="line"/>
      <point x="-572" y="-492" type="line"/>
    </contour>
    <contour>
      <point x="-512" y="-1" type="move" name="_Ligature below"/>
    </contour>
    <contour>
      <point x="-512" y="-1" type="move" name="_below"/>
    </contour>
    <contour>
      <point x="-512" y="0" type="move" name="_below-mark"/>
    </contour>
    <contour>
      <point x="-512" y="-491" type="move" name="below-mark"/>
    </contour>
  </outline>
</glyph>
<glyph name="uni0328" format="1">
  <advance width="0"/>
  <unicode hex="0328"/>
  <outline>
    <component base="ogonek" xOffset="-1024"/>
    <contour>
      <point x="-524" y="0" type="move" name="_ogonek"/>
    </contour>
    <contour>
      <point x="-512" y="-396" type="move" name="below-mark"/>
    </contour>
  </outline>
</glyph>
<glyph name="uni0413" format="1">
  <advance width="1249"/>
  <unicode hex="0413"/>
  <outline>
    <contour>
      <point x="201" y="0" type="line"/>
      <point x="201" y="1493" type="line"/>
      <point x="1130" y="1493" type="line"/>
      <point x="1130" y="1323" type="line"/>
      <point x="403" y="1323" type="line"/>
      <point x="403" y="0" type="line"/>
    </contour>
    <contour>
      <point x="665" y="1520" type="move" name="above"/>
    </contour>
  </outline>
</glyph>
<glyph name="uni0435" format="1">
  <advance width="1260"/>
  <unicode hex="0435"/>
  <outline>
    <component base="e"/>
    <contour>
      <point x="653" y="1147" type="move" name="above"/>
    </contour>
  </outline>
</glyph>
<glyph name="uni043C" format="1">
  <advance width="1545"/>
  <unicode hex="043C"/>
  <outline>
    <contour>
      <point x="186" y="1120" type="line"/>
      <point x="455" y="1120" type="line"/>
      <point x="773" y="370" type="line"/>
      <point x="1092" y="1120" type="line"/>
      <point x="1359" y="1120" type="line"/>
      <point x="1359" y="0" type="line"/>
      <point x="1174" y="0" type="line"/>
      <point x="1174" y="944" type="line"/>
      <point x="865" y="215" type="line"/>
      <point x="681" y="215" type="line"/>
      <point x="371" y="944" type="line"/>
      <point x="371" y="0" type="line"/>
      <point x="186" y="0" type="line"/>
    </contour>
    <contour>
      <point x="773" y="1147" type="move" name="above"/>
    </contour>
  </outline>
</glyph>
<glyph name="uni044B" format="1">
  <advance width="1617"/>
  <unicode hex="044B"/>
  <outline>
    <component base="dotlessi" xOffset="1058"/>
    <component base="uni044C"/>
    <contour>
      <point x="797" y="1147" type="move" name="above"/>
    </contour>
  </outline>
</glyph>
<glyph name="uni0461" format="1">
  <advance width="1715"/>
  <unicode hex="0461"/>
  <outline>
    <component base="omega"/>
    <contour>
      <point x="862" y="1147" type="move" name="above"/>
    </contour>
  </outline>
</glyph>
<glyph name="uni05B8" format="1">
  <advance width="0"/>
  <unicode hex="05B8"/>
  <outline>
    <contour>
      <point x="730" y="-245" type="line"/>
      <point x="730" y="-395" type="line"/>
      <point x="580" y="-395" type="line"/>
      <point x="580" y="-245" type="line"/>
      <point x="355" y="-245" type="line"/>
      <point x="355" y="-95" type="line"/>
      <point x="955" y="-95" type="line"/>
      <point x="955" y="-245" type="line"/>
    </contour>
    <contour>
      <point x="655" y="0" type="move" name="_Ligature rtl-below"/>
    </contour>
    <contour>
      <point x="655" y="0" type="move" name="_rtl-below"/>
    </contour>
    <contour>
      <point x="655" y="0" type="move" name="_rtl-below-mark"/>
    </contour>
  </outline>
</glyph>
<glyph name="uni05BF" format="1">
  <advance width="0"/>
  <unicode hex="05BF"/>
  <outline>
    <contour>
      <point x="355" y="1430" type="line"/>
      <point x="955" y="1430" type="line"/>
      <point x="955" y="1280" type="line"/>
      <point x="355" y="1280" type="line"/>
    </contour>
    <contour>
      <point x="655" y="1120" type="move" name="_Ligature rtl-above"/>
    </contour>
    <contour>
      <point x="655" y="1120" type="move" name="_rtl-above"/>
    </contour>
    <contour>
      <point x="655" y="1120" type="move" name="_rtl-above-mark"/>
    </contour>
  </outline>
</glyph>
<glyph name="uni0686" format="1">
  <advance width="1322"/>
  <unicode hex="0686"/>
  <outline>
    <component base="uni062D"/>
    <component base="arabic_3dots_a" xOffset="662" yOffset="150"/>
    <contour>
      <point x="650" y="1000" type="move" name="rtl-above"/>
    </contour>
    <contour>
      <point x="812" y="-600" type="move" name="rtl-below"/>
    </contour>
  </outline>
</glyph>
<glyph name="uni0689" format="1">
  <advance width="912"/>
  <unicode hex="0689"/>
  <outline>
    <component base="uni062F"/>
    <component base="arabic_ring" xOffset="281" yOffset="-368"/>
    <contour>
      <point x="400" y="1000" type="move" name="rtl-above"/>
    </contour>
    <contour>
      <point x="500" y="-418" type="move" name="rtl-below"/>
    </contour>
  </outline>
</glyph>
<glyph name="uni0693" format="1">
  <advance width="1020"/>
  <unicode hex="0693"/>
  <outline>
    <component base="uni0631"/>
    <component base="arabic_ring" xOffset="600" yOffset="-500"/>
    <contour>
      <point x="700" y="750" type="move" name="rtl-above"/>
    </contour>
    <contour>
      <point x="500" y="-500" type="move" name="rtl-below"/>
    </contour>
  </outline>
</glyph>
<glyph name="uni06BB" format="1">
  <advance width="1504"/>
  <unicode hex="06BB"/>
  <outline>
    <component base="uni06BA"/>
    <component base="uni0615" xOffset="200" yOffset="-475"/>
    <contour>
      <point x="700" y="1375" type="move" name="rtl-above"/>
    </contour>
    <contour>
      <point x="750" y="-450" type="move" name="rtl-below"/>
    </contour>
  </outline>
</glyph>
<glyph name="uni06C8" format="1">
  <advance width="989"/>
  <unicode hex="06C8"/>
  <outline>
    <component base="uni0670" xOffset="-20" yOffset="-485"/>
    <component base="uni0648"/>
    <contour>
      <point x="500" y="1450" type="move" name="rtl-above"/>
    </contour>
    <contour>
      <point x="500" y="-500" type="move" name="rtl-below"/>
    </contour>
  </outline>
</glyph>
<glyph name="uni07F1" format="1">
  <advance width="0"/>
  <unicode hex="07F1"/>
  <outline>
    <contour>
      <point x="91" y="1262" type="line"/>
      <point x="91" y="1410" type="line"/>
      <point x="352" y="1638" type="line"/>
      <point x="534" y="1638" type="line"/>
      <point x="298" y="1408" type="line"/>
      <point x="933" y="1410" type="line"/>
      <point x="933" y="1262" type="line"/>
    </contour>
    <contour>
      <point x="512" y="1147" type="move" name="_rtl-above"/>
    </contour>
  </outline>
</glyph>
<glyph name="uni1D21" format="1">
  <advance width="1675"/>
  <unicode hex="1D21"/>
  <outline>
    <component base="w"/>
    <contour>
      <point x="839" y="1147" type="move" name="above"/>
    </contour>
    <contour>
      <point x="839" y="0" type="move" name="below"/>
    </contour>
  </outline>
</glyph>
<glyph name="uniA7AA" format="1">
  <advance width="1640"/>
  <unicode hex="A7AA"/>
  <outline>
    <contour>
      <point x="301" y="1327.52" type="line"/>
      <point x="169.319" y="1327.46"/>
      <point x="51" y="1232.99"/>
      <point x="51" y="1128" type="qcurve" smooth="yes"/>
      <point x="51" y="1079" type="line"/>
      <point x="-105" y="1079" type="line"/>
      <point x="-105" y="1149" type="line" smooth="yes"/>
      <point x="-105" y="1330.01"/>
      <point x="87.008" y="1493"/>
      <point x="301" y="1493" type="qcurve" smooth="yes"/>
      <point x="503" y="1493" type="line"/>
      <point x="503" y="881" type="line"/>
      <point x="1237" y="881" type="line"/>
      <point x="1237" y="1493" type="line"/>
      <point x="1439" y="1493" type="line"/>
      <point x="1439" y="0" type="line"/>
      <point x="1237" y="0" type="line"/>
      <point x="1237" y="711" type="line"/>
      <point x="503" y="711" type="line"/>
      <point x="503" y="0" type="line"/>
      <point x="301" y="0" type="line"/>
    </contour>
    <contour>
      <point x="870" y="1520" type="move" name="above"/>
    </contour>
    <contour>
      <point x="870" y="0" type="move" name="below"/>
    </contour>
    <contour>
      <point x="402" y="0" type="move" name="cedilla"/>
    </contour>
    <contour>
      <point x="0" y="1520" type="move" name="half"/>
    </contour>
  </outline>
</glyph>
<glyph name="uniA7FE" format="1">
  <advance width="604"/>
  <unicode hex="A7FE"/>
  <outline>
    <contour>
      <point x="201" y="1901" type="line"/>
      <point x="403" y="1901" type="line"/>
      <point x="403" y="0" type="line"/>
      <point x="201" y="0" type="line"/>
    </contour>
    <contour>
      <point x="303" y="1928" type="move" name="above"/>
    </contour>
    <contour>
      <point x="303" y="0" type="move" name="below"/>
    </contour>
    <contour>
      <point x="303" y="0" type="move" name="cedilla"/>
    </contour>
    <contour>
      <point x="0" y="1520" type="move" name="half"/>
    </contour>
  </outline>
</glyph>
<glyph name="uniFB6E" format="1">
  <advance width="2123"/>
  <unicode hex="FB6E"/>
  <outline>
    <component base="arabic_4dots" xOffset="1400" yOffset="1400"/>
    <component base="uni06A1"/>
    <contour>
      <point x="700" y="1100" type="move" name="rtl-above"/>
    </contour>
    <contour>
      <point x="800" y="-200" type="move" name="rtl-below"/>
    </contour>
  </outline>
</glyph>
<glyph name="uniFB85" format="1">
  <advance width="1075"/>
  <unicode hex="FB85"/>
  <outline>
    <component base="arabic_2dots" xOffset="250" yOffset="1050"/>
    <component base="uniFEAA"/>
    <contour>
      <point x="450" y="1250" type="move" name="rtl-above"/>
    </contour>
    <contour>
      <point x="450" y="-150" type="move" name="rtl-below"/>
    </contour>
  </outline>
</glyph>
<glyph name="uniFB9D" format="1">
  <advance width="1131"/>
  <unicode hex="FB9D"/>
  <outline>
    <component base="uniFB95"/>
    <component base="arabic_2dots" xOffset="75" yOffset="1700"/>
    <contour>
      <point x="275" y="1900" type="move" name="rtl-above"/>
    </contour>
    <contour>
      <point x="300" y="-150" type="move" name="rtl-below"/>
    </contour>
  </outline>
</glyph>
<glyph name="uniFE9C" format="1">
  <advance width="618"/>
  <unicode hex="FE9C"/>
  <outline>
    <component base="uni066E.medi"/>
    <component base="arabic_3dots" xOffset="99" yOffset="850"/>
    <contour>
      <point x="299" y="1300" type="move" name="rtl-above"/>
    </contour>
    <contour>
      <point x="299" y="-100" type="move" name="rtl-below"/>
    </contour>
  </outline>
</glyph>
<glyph name="uniFEA5" format="1">
  <advance width="1322"/>
  <unicode hex="FEA5"/>
  <outline>
    <component base="arabic_dot" xOffset="575" yOffset="1050"/>
    <component base="uni062D"/>
    <contour>
      <point x="650" y="1250" type="move" name="rtl-above"/>
    </contour>
    <contour>
      <point x="812" y="-600" type="move" name="rtl-below"/>
    </contour>
  </outline>
</glyph>
<glyph name="uniFEED" format="1">
  <advance width="989"/>
  <unicode hex="FEED"/>
  <outline>
    <component base="uni0648"/>
    <contour>
      <point x="500" y="750" type="move" name="rtl-above"/>
    </contour>
    <contour>
      <point x="500" y="-500" type="move" name="rtl-below"/>
    </contour>
  </outline>
</glyph>
<glyph name="uni06B0.medi" format="1">
  <advance width="1131"/>
  <outline>
    <component base="uniFB95"/>
    <component base="arabic_ring" xOffset="500" yOffset="900"/>
    <contour>
      <point x="250" y="1700" type="move" name="rtl-above"/>
    </contour>
    <contour>
      <point x="300" y="-150" type="move" name="rtl-below"/>
    </contour>
  </outline>
</glyph>
<glyph name="uni06B5.fina" format="1">
  <advance width="1551"/>
  <outline>
    <component base="uni065A" xOffset="700" yOffset="400"/>
    <component base="uniFEDE"/>
    <contour>
      <point x="1212" y="2100" type="move" name="rtl-above"/>
    </contour>
    <contour>
      <point x="700" y="-450" type="move" name="rtl-below"/>
    </contour>
  </outline>
</glyph>
<glyph name="uni06CE.fina" format="1">
  <advance width="1707"/>
  <outline>
    <component base="uni065A" xOffset="188" yOffset="-750"/>
    <component base="uniFEF0"/>
    <contour>
      <point x="700" y="950" type="move" name="rtl-above"/>
    </contour>
    <contour>
      <point x="700" y="-400" type="move" name="rtl-below"/>
    </contour>
  </outline>
</glyph>
